<?xml version="1.0" encoding="UTF-8"?>
<svg id="Layer_1" xmlns="http://www.w3.org/2000/svg" xmlns:xlink="http://www.w3.org/1999/xlink" version="1.1" viewBox="0 0 100 41.1">
  <!-- Generator: Adobe Illustrator 29.3.1, SVG Export Plug-In . SVG Version: 2.1.0 Build 151)  -->
  <defs>
    <style>
      .st0 {
        fill-rule: evenodd;
      }
    </style>
  </defs>
  <g id="Layer_151">
    <path class="st0" d="M50.4,36.8c-2.1,0-3.6-1-4.5-2.5-1-1.6-1-3.7,0-5.4s2.7-2.6,4.7-2.6,3.3.7,4.7,1.7c.2.1.4,0,.5,0,.5-.7,1-1.6,1.6-2.5,2-3.3,3.6-6.6,4.2-7.8h-14.2v-3.9h18.1v4.7l-.2.4h0c-.1.3-2,4.4-4.6,8.6-.7,1.1-1.4,2.1-2,3.1,1.7,1.1,3.8,2.1,6.8,2.3v3.9c-4-.2-6.8-1.5-8.9-2.9-.2,0-.4,0-.5,0-1.9,2-3.7,3-5.5,3.1h0ZM50.4,30.2c-.6,0-1.1.2-1.3.7-.3.5-.3,1.1,0,1.5.3.4.6.6,1.2.6.1,0,1,0,2.5-1.7-1-.7-1.7-1-2.5-1h0Z"/>
    <path d="M3.7,4.7h4.7v27.7h12.2v4.2H3.7V4.7Z"/>
    <path d="M42.6,36.6h-4.4v-4.1c-1.2,2.9-4,4.4-7.4,4.4-5.2,0-8.5-3.7-8.5-9.2v-14.1h4.4v13.3c0,3.6,2.1,6.1,5.4,6.1s6.1-2.9,6.1-6.9v-12.4h4.4v23h0Z"/>
    <path d="M69,13.7h4.4v23h-4.4V13.7Z"/>
    <path d="M96.3,21.8v14.8h-4.4v-3.7c-1.1,2.5-4,4.1-7.5,4.1s-7.8-2.8-7.8-6.9,3.5-7.2,8.9-7.2h4.8c1,0,1.5-.5,1.5-1.4,0-2.8-2-4.7-5.5-4.7s-5.5,2-5.6,4.3h-4.1c.4-4.5,4.5-7.9,9.9-7.9s9.8,3.4,9.8,8.5h0s0,0,0,0ZM91.9,26.6v-.5h-5.9c-3,0-5,1.6-5,4s1.7,3.5,4.3,3.5c4.2,0,6.6-2.7,6.6-6.9h0Z"/>
    <ellipse cx="71.2" cy="7.2" rx="3.1" ry="3.1"/>
  </g>
</svg>